<?xml version="1.0" encoding="utf-8"?>
<!-- Generator: Adobe Illustrator 27.5.0, SVG Export Plug-In . SVG Version: 6.00 Build 0)  -->
<svg version="1.1" xmlns="http://www.w3.org/2000/svg" xmlns:xlink="http://www.w3.org/1999/xlink" x="0px" y="0px"
	 viewBox="0 0 2200 1466" style="enable-background:new 0 0 2200 1466;" xml:space="preserve">
<g id="background">
	<rect y="0" style="fill:#FFFFFF;" width="2200" height="1466"/>
</g>
<g id="Objects">
	<path d="M1043.115,845.391c9.428-36.099,14.232-73.33,14.323-111.285c0.115-0.35,0.193-0.718,0.193-1.107s-0.078-0.756-0.193-1.107
		c-0.092-37.955-4.896-75.186-14.323-111.285c0.002-0.05,0.015-0.097,0.015-0.148c0-0.688-0.204-1.324-0.542-1.868
		c-5.284-19.847-11.966-39.349-20.039-58.436c-7.755-18.334-16.697-36.004-26.736-52.988c-0.161-0.748-0.564-1.399-1.115-1.891
		c-18.694-31.271-41.196-60.15-67.311-86.265c-8.92-8.92-18.18-17.395-27.729-25.468c-0.402-0.661-1.006-1.18-1.735-1.466
		c-33.654-28.159-71.07-51.05-111.68-68.227c-52.387-22.158-107.895-33.856-165.106-34.824c-1.423-0.042-2.847-0.072-4.273-0.09
		c-0.156-0.005-0.312-0.013-0.469-0.017c-0.995-0.1-1.994-0.152-2.995-0.152s-2,0.052-2.995,0.152
		c-0.156,0.004-0.313,0.012-0.469,0.017c-1.426,0.019-2.85,0.049-4.272,0.09c-57.211,0.968-112.719,12.665-165.107,34.824
		c-40.61,17.176-78.026,40.067-111.68,68.227c-0.729,0.286-1.333,0.806-1.735,1.467c-9.548,8.072-18.808,16.547-27.728,25.467
		c-26.115,26.115-48.616,54.994-67.31,86.265c-0.552,0.492-0.955,1.144-1.116,1.893c-10.038,16.983-18.98,34.652-26.735,52.986
		c-8.073,19.087-14.754,38.59-20.039,58.436c-0.338,0.544-0.542,1.18-0.542,1.868c0,0.05,0.013,0.097,0.015,0.147
		c-9.428,36.1-14.233,73.331-14.324,111.287c-0.115,0.35-0.193,0.717-0.193,1.105s0.078,0.755,0.193,1.105
		c0.091,37.956,4.896,75.187,14.324,111.286c-0.002,0.05-0.015,0.097-0.015,0.148c0,0.688,0.204,1.324,0.542,1.868
		c5.284,19.847,11.965,39.349,20.038,58.436c7.755,18.334,16.696,36.003,26.734,52.986c0.161,0.75,0.565,1.402,1.117,1.894
		c18.694,31.271,41.195,60.149,67.31,86.264c8.92,8.92,18.18,17.395,27.728,25.467c0.402,0.662,1.007,1.182,1.737,1.468
		c33.654,28.159,71.07,51.05,111.679,68.226c52.337,22.137,107.787,33.833,164.939,34.82c1.484,0.044,2.97,0.075,4.457,0.094
		c0.151,0.004,0.301,0.013,0.452,0.016c0.995,0.1,1.994,0.152,2.995,0.152s2-0.052,2.995-0.152c0.151-0.004,0.301-0.012,0.452-0.016
		c1.487-0.019,2.973-0.05,4.457-0.094c57.152-0.988,112.603-12.683,164.939-34.82c40.609-17.177,78.025-40.067,111.679-68.226
		c0.73-0.286,1.334-0.806,1.736-1.468c9.548-8.072,18.808-16.547,27.728-25.467c26.115-26.114,48.616-54.993,67.31-86.264
		c0.551-0.492,0.954-1.143,1.115-1.892c10.038-16.984,18.981-34.653,26.736-52.987c8.073-19.087,14.754-38.589,20.039-58.435
		c0.338-0.544,0.542-1.181,0.542-1.869C1043.13,845.488,1043.117,845.441,1043.115,845.391z M176.118,736.556h99.654
		c0.214,36.007,3.648,71.344,10.154,105.428h-96.163C180.971,807.749,176.401,772.486,176.118,736.556z M189.762,624.017h96.163
		c-6.507,34.084-9.941,69.421-10.154,105.428h-99.654C176.401,693.514,180.971,658.251,189.762,624.017z M1050.685,729.444h-99.654
		c-0.214-36.007-3.648-71.344-10.154-105.428h96.163C1045.832,658.251,1050.402,693.514,1050.685,729.444z M944.202,729.444H836.511
		c-0.141-36.008-2.404-71.345-6.69-105.428h104.094C940.499,658.075,943.986,693.414,944.202,729.444z M678.708,1067.062h-61.937
		V961.634h83.525c-4.328,29.502-9.522,57.078-15.54,82.141C682.807,1051.893,680.788,1059.655,678.708,1067.062z M542.047,1043.774
		c-6.017-25.062-11.212-52.638-15.54-82.141h83.526v105.428h-61.937C546.015,1059.655,543.996,1051.893,542.047,1043.774z
		 M548.095,398.938h61.937v105.428h-83.526c4.328-29.502,9.523-57.078,15.54-82.14C543.996,414.107,546.015,406.345,548.095,398.938
		z M684.756,422.226c6.017,25.062,11.211,52.638,15.54,82.14h-83.525V398.938h61.937
		C680.788,406.345,682.807,414.107,684.756,422.226z M616.771,391.827v-95.685c21.438,3.248,42.639,37.336,59.888,95.685H616.771z
		 M610.032,296.143v95.685h-59.888C567.393,333.479,588.594,299.391,610.032,296.143z M610.032,511.478v105.428h-95.175
		c2.412-36.968,5.983-72.359,10.629-105.428H610.032z M610.032,624.017v105.428h-98.866c0.068-36.025,1.166-71.364,3.241-105.428
		H610.032z M610.032,736.556v105.428h-95.624c-2.075-34.064-3.173-69.403-3.241-105.428H610.032z M610.032,849.095v105.428h-84.546
		c-4.647-33.069-8.217-68.46-10.629-105.428H610.032z M610.032,1074.173v95.685c-21.438-3.248-42.639-37.336-59.888-95.685H610.032z
		 M616.771,1169.857v-95.685h59.888C659.41,1132.521,638.209,1166.609,616.771,1169.857z M616.771,954.522V849.095h95.174
		c-2.412,36.968-5.983,72.359-10.629,105.428H616.771z M616.771,841.983V736.556h98.865c-0.068,36.025-1.166,71.364-3.241,105.428
		H616.771z M616.771,729.444V624.017h95.623c2.075,34.064,3.173,69.402,3.241,105.428H616.771z M616.771,616.905V511.478h84.545
		c4.647,33.069,8.217,68.46,10.629,105.428H616.771z M708.494,511.478h91.287c9.535,32.671,17.026,68.055,22.122,105.428H719.068
		C716.667,579.966,713.116,544.577,708.494,511.478z M707.482,504.366c-4.39-30.112-9.677-58.247-15.812-83.8
		c-1.802-7.508-3.662-14.715-5.573-21.627h66.671c17.582,30.034,32.766,65.63,44.89,105.428H707.482z M684.081,391.827
		c-7.963-27.383-16.809-49.72-26.405-66.626c-6.722-11.842-13.726-20.817-20.963-26.9c42.01,9.146,80.455,42.714,111.781,93.526
		H684.081z M569.127,325.201c-9.596,16.906-18.443,39.244-26.406,66.626h-64.412c31.326-50.813,69.771-84.38,111.781-93.526
		C582.853,304.384,575.849,313.358,569.127,325.201z M540.706,398.938c-1.912,6.912-3.771,14.12-5.574,21.627
		c-6.135,25.553-11.422,53.689-15.812,83.8h-90.175c12.124-39.797,27.308-75.394,44.89-105.428H540.706z M518.308,511.478
		c-4.623,33.099-8.174,68.488-10.575,105.428H404.899c5.096-37.373,12.588-72.757,22.122-105.428H518.308z M507.284,624.017
		c-2.068,34.078-3.161,69.416-3.229,105.428H397.169c0.144-36.359,2.491-71.676,6.789-105.428H507.284z M504.055,736.556
		c0.068,36.012,1.161,71.349,3.229,105.428H403.958c-4.298-33.751-6.645-69.069-6.789-105.428H504.055z M507.734,849.095
		c2.401,36.939,5.952,72.328,10.575,105.428h-91.287c-9.535-32.671-17.026-68.055-22.122-105.428H507.734z M519.32,961.634
		c4.39,30.112,9.677,58.247,15.812,83.801c1.803,7.508,3.662,14.715,5.574,21.627h-66.671
		c-17.582-30.034-32.766-65.63-44.89-105.428H519.32z M542.721,1074.173c7.963,27.383,16.809,49.72,26.406,66.627
		c6.722,11.842,13.726,20.817,20.963,26.899c-42.01-9.146-80.455-42.714-111.781-93.526H542.721z M657.676,1140.8
		c9.596-16.907,18.443-39.244,26.405-66.627h64.412c-31.326,50.813-69.77,84.38-111.78,93.526
		C643.95,1161.616,650.954,1152.642,657.676,1140.8z M686.097,1067.062c1.912-6.912,3.771-14.119,5.573-21.627
		c6.135-25.553,11.422-53.689,15.812-83.801h90.175c-12.124,39.797-27.308,75.394-44.89,105.428H686.097z M708.493,954.522
		c4.623-33.1,8.174-68.488,10.575-105.428h102.835c-5.096,37.373-12.588,72.757-22.122,105.428H708.493z M719.518,841.983
		c2.068-34.078,3.161-69.416,3.229-105.428h106.886c-0.144,36.359-2.491,71.676-6.789,105.428H719.518z M722.746,729.444
		c-0.068-36.012-1.161-71.349-3.229-105.428h103.326c4.298,33.751,6.645,69.069,6.789,105.428H722.746z M828.888,616.905
		c-4.973-36.93-12.327-72.318-21.901-105.428h91.764c14.752,33.052,26.088,68.446,33.746,105.428H828.888z M804.894,504.366
		c-9.167-30.374-20.226-58.747-33.068-84.507c-3.618-7.258-7.344-14.229-11.164-20.921h66.156
		c6.954,7.781,13.704,15.941,20.212,24.521c18.739,24.706,34.939,51.865,48.475,80.907H804.894z M756.501,391.827
		c-26.366-43.957-57.122-74.705-90.223-90.549c25.92,5.497,51.195,15.07,75.565,28.66c28.348,15.808,54.612,36.563,78.452,61.889
		H756.501z M470.302,391.827h-63.794c23.84-25.326,50.104-46.081,78.452-61.889c24.37-13.59,49.644-23.163,75.564-28.66
		C527.423,317.122,496.668,347.87,470.302,391.827z M466.141,398.938c-3.821,6.692-7.546,13.663-11.164,20.921
		c-12.842,25.76-23.901,54.133-33.068,84.507h-90.61c13.535-29.042,29.736-56.201,48.475-80.907
		c6.508-8.58,13.257-16.74,20.212-24.521H466.141z M419.816,511.478c-9.574,33.11-16.928,68.498-21.901,105.428H294.306
		c7.658-36.982,18.995-72.376,33.746-105.428H419.816z M396.981,624.017c-4.286,34.083-6.549,69.42-6.69,105.428h-107.69
		c0.216-36.03,3.702-71.37,10.287-105.428H396.981z M282.601,736.556h107.69c0.141,36.008,2.404,71.345,6.69,105.428H292.888
		C286.303,807.925,282.817,772.586,282.601,736.556z M397.914,849.095c4.974,36.93,12.327,72.318,21.901,105.428h-91.764
		c-14.752-33.052-26.088-68.446-33.746-105.428H397.914z M421.909,961.634c9.167,30.374,20.226,58.747,33.068,84.507
		c3.618,7.258,7.344,14.229,11.164,20.921h-66.156c-6.954-7.781-13.704-15.941-20.212-24.521
		c-18.739-24.706-34.939-51.865-48.475-80.907H421.909z M470.302,1074.173c26.366,43.956,57.12,74.704,90.22,90.548
		c-25.919-5.497-51.193-15.07-75.562-28.659c-28.348-15.808-54.612-36.564-78.452-61.89H470.302z M756.501,1074.173h63.794
		c-23.84,25.326-50.104,46.082-78.452,61.89c-24.37,13.589-49.644,23.162-75.563,28.659
		C699.379,1148.877,730.135,1118.129,756.501,1074.173z M760.662,1067.062c3.821-6.692,7.546-13.663,11.164-20.921
		c12.842-25.76,23.901-54.133,33.068-84.507h90.61c-13.536,29.042-29.736,56.202-48.475,80.907
		c-6.508,8.58-13.257,16.739-20.212,24.521H760.662z M806.986,954.522c9.574-33.11,16.928-68.498,21.901-105.428h103.609
		c-7.658,36.982-18.994,72.376-33.746,105.428H806.986z M829.821,841.983c4.286-34.083,6.549-69.42,6.69-105.428h107.691
		c-0.216,36.03-3.702,71.37-10.287,105.428H829.821z M951.032,736.556h99.654c-0.283,35.931-4.853,71.193-13.645,105.428h-96.163
		C947.384,807.9,950.818,772.563,951.032,736.556z M1035.145,616.905h-95.687c-7.549-36.925-18.71-72.313-33.242-105.428h84.315
		c9.675,16.457,18.309,33.565,25.812,51.305C1023.828,580.479,1030.094,598.54,1035.145,616.905z M986.267,504.366h-83.225
		c-14.004-30.573-30.919-59.124-50.571-85.034c-5.361-7.068-10.886-13.855-16.548-20.394h59.678
		c9.302,7.878,18.326,16.144,27.023,24.84C947.122,448.277,968.39,475.247,986.267,504.366z M783.619,330.059
		c37.351,15.798,71.953,36.513,103.364,61.769h-57.372c-25.456-27.974-53.746-50.736-84.443-67.854
		c-13.425-7.486-27.121-13.778-41.046-18.878C731.274,310.823,757.831,319.151,783.619,330.059z M443.183,330.059
		c25.788-10.907,52.346-19.235,79.497-24.964c-13.924,5.1-27.621,11.392-41.046,18.878c-30.697,17.118-58.987,39.88-84.443,67.854
		H339.82C371.231,366.571,405.833,345.856,443.183,330.059z M304.18,423.778c8.696-8.696,17.72-16.962,27.023-24.84h59.678
		c-5.662,6.539-11.187,13.326-16.548,20.394c-19.653,25.91-36.567,54.461-50.571,85.034h-83.226
		C258.413,475.247,279.681,448.277,304.18,423.778z M210.46,562.782c7.503-17.74,16.137-34.848,25.812-51.305h84.315
		c-14.532,33.115-25.692,68.503-33.242,105.428h-95.688C196.709,598.54,202.975,580.479,210.46,562.782z M191.658,849.095h95.688
		c7.549,36.925,18.709,72.313,33.242,105.428h-84.315c-9.675-16.457-18.309-33.565-25.812-51.305
		C202.975,885.521,196.709,867.459,191.658,849.095z M240.535,961.634h83.226c14.004,30.573,30.918,59.124,50.571,85.034
		c5.361,7.068,10.886,13.855,16.548,20.394h-59.677c-9.302-7.878-18.327-16.144-27.023-24.84
		C279.681,1017.723,258.412,990.754,240.535,961.634z M443.183,1135.941c-37.35-15.798-71.952-36.512-103.363-61.769h57.371
		c25.456,27.974,53.746,50.736,84.443,67.854c13.425,7.486,27.121,13.778,41.045,18.878
		C495.528,1155.176,468.971,1146.848,443.183,1135.941z M783.619,1135.941c-25.787,10.907-52.345,19.235-79.495,24.963
		c13.924-5.1,27.62-11.392,41.045-18.878c30.697-17.117,58.987-39.879,84.443-67.854h57.371
		C855.572,1099.429,820.97,1120.144,783.619,1135.941z M922.623,1042.222c-8.696,8.696-17.72,16.962-27.023,24.84h-59.678
		c5.662-6.539,11.187-13.326,16.548-20.394c19.653-25.91,36.568-54.461,50.571-85.034h83.226
		C968.39,990.754,947.122,1017.723,922.623,1042.222z M1016.343,903.218c-7.503,17.74-16.137,34.848-25.812,51.305h-84.315
		c14.533-33.115,25.693-68.503,33.242-105.428h95.687C1030.094,867.459,1023.828,885.521,1016.343,903.218z"/>
	<path style="fill:#1F46EA;" d="M2016.312,845.391c9.428-36.099,14.232-73.33,14.323-111.285c0.115-0.35,0.193-0.718,0.193-1.107
		s-0.078-0.756-0.193-1.107c-0.092-37.955-4.896-75.186-14.323-111.285c0.002-0.05,0.015-0.097,0.015-0.148
		c0-0.688-0.204-1.324-0.542-1.868c-5.284-19.847-11.966-39.349-20.039-58.436c-7.754-18.333-16.696-36.002-26.734-52.984
		c-0.161-0.75-0.565-1.403-1.118-1.896c-18.694-31.271-41.195-60.149-67.31-86.264c-8.92-8.92-18.179-17.394-27.727-25.466
		c-0.402-0.662-1.007-1.182-1.737-1.468c-33.654-28.159-71.07-51.05-111.68-68.226c-52.387-22.158-107.895-33.856-165.106-34.824
		c-1.423-0.042-2.847-0.072-4.273-0.09c-0.156-0.005-0.313-0.013-0.469-0.017c-0.995-0.1-1.994-0.152-2.995-0.152
		s-2,0.052-2.995,0.152c-0.156,0.004-0.313,0.012-0.469,0.017c-1.426,0.019-2.85,0.049-4.273,0.09
		c-57.211,0.968-112.719,12.665-165.106,34.824c-40.61,17.176-78.026,40.067-111.68,68.227c-0.729,0.286-1.333,0.805-1.734,1.466
		c-9.548,8.072-18.808,16.547-27.729,25.468c-26.115,26.115-48.616,54.994-67.311,86.265c-0.551,0.492-0.953,1.143-1.115,1.891
		c-10.039,16.984-18.981,34.653-26.736,52.988c-8.073,19.087-14.755,38.589-20.039,58.436c-0.338,0.544-0.542,1.181-0.542,1.868
		c0,0.051,0.013,0.098,0.015,0.148c-9.428,36.099-14.232,73.33-14.323,111.285c-0.115,0.35-0.193,0.718-0.193,1.107
		s0.078,0.756,0.193,1.107c0.092,37.955,4.896,75.186,14.323,111.285c-0.002,0.05-0.015,0.097-0.015,0.148
		c0,0.688,0.204,1.325,0.542,1.869c5.284,19.846,11.965,39.348,20.039,58.435c7.755,18.334,16.697,36.004,26.736,52.987
		c0.161,0.748,0.564,1.4,1.115,1.892c18.694,31.271,41.195,60.15,67.31,86.264c8.92,8.92,18.18,17.395,27.728,25.467
		c0.402,0.662,1.007,1.182,1.736,1.468c33.654,28.159,71.07,51.05,111.679,68.226c52.336,22.137,107.787,33.833,164.939,34.82
		c1.484,0.044,2.97,0.075,4.457,0.094c0.151,0.004,0.301,0.013,0.452,0.016c0.995,0.1,1.994,0.152,2.995,0.152s2-0.052,2.995-0.152
		c0.151-0.004,0.301-0.012,0.452-0.016c1.487-0.019,2.973-0.05,4.457-0.094c57.152-0.988,112.602-12.683,164.939-34.82
		c40.609-17.176,78.025-40.067,111.679-68.226c0.731-0.286,1.336-0.807,1.739-1.47c9.547-8.072,18.807-16.546,27.726-25.465
		c26.115-26.114,48.615-54.992,67.309-86.263c0.553-0.493,0.957-1.146,1.118-1.897c10.038-16.982,18.979-34.651,26.733-52.984
		c8.073-19.087,14.754-38.589,20.039-58.435c0.338-0.544,0.542-1.181,0.542-1.869
		C2016.327,845.488,2016.314,845.441,2016.312,845.391z M1149.315,736.556h99.654c0.214,36.007,3.648,71.344,10.154,105.428h-96.163
		C1154.168,807.749,1149.598,772.486,1149.315,736.556z M1162.96,624.017h96.163c-6.507,34.084-9.941,69.421-10.154,105.428h-99.654
		C1149.598,693.514,1154.168,658.251,1162.96,624.017z M2023.883,729.444h-99.654c-0.214-36.007-3.648-71.344-10.154-105.428h96.163
		C2019.029,658.251,2023.599,693.514,2023.883,729.444z M1917.399,729.444h-107.69c-0.141-36.008-2.404-71.345-6.69-105.428h104.093
		C1913.697,658.075,1917.183,693.414,1917.399,729.444z M1651.905,1067.062h-61.937V961.634h83.526
		c-4.328,29.502-9.523,57.078-15.54,82.141C1656.004,1051.893,1653.985,1059.655,1651.905,1067.062z M1515.244,1043.774
		c-6.017-25.062-11.211-52.639-15.54-82.141h83.525v105.428h-61.937C1519.212,1059.655,1517.193,1051.893,1515.244,1043.774z
		 M1521.292,398.938h61.937v105.428h-83.525c4.328-29.502,9.523-57.078,15.54-82.14
		C1517.193,414.107,1519.212,406.345,1521.292,398.938z M1657.953,422.226c6.017,25.062,11.212,52.638,15.54,82.14h-83.526V398.938
		h61.937C1653.985,406.345,1656.004,414.107,1657.953,422.226z M1589.968,391.827v-95.685c21.438,3.248,42.639,37.336,59.888,95.685
		H1589.968z M1583.229,296.143v95.685h-59.888C1540.59,333.479,1561.791,299.391,1583.229,296.143z M1583.229,511.478v105.428
		h-95.174c2.412-36.968,5.983-72.359,10.629-105.428H1583.229z M1583.229,624.017v105.428h-98.865
		c0.068-36.025,1.166-71.364,3.241-105.428H1583.229z M1583.229,736.556v105.428h-95.623c-2.075-34.064-3.173-69.402-3.241-105.428
		H1583.229z M1583.229,849.095v105.428h-84.545c-4.646-33.069-8.217-68.46-10.629-105.428H1583.229z M1583.229,1074.173v95.685
		c-21.438-3.248-42.639-37.336-59.888-95.685H1583.229z M1589.968,1169.857v-95.685h59.888
		C1632.607,1132.521,1611.406,1166.609,1589.968,1169.857z M1589.968,954.522V849.095h95.175
		c-2.412,36.968-5.983,72.359-10.629,105.428H1589.968z M1589.968,841.983V736.556h98.866c-0.068,36.025-1.166,71.364-3.241,105.428
		H1589.968z M1589.968,729.444V624.017h95.624c2.075,34.064,3.173,69.402,3.241,105.428H1589.968z M1589.968,616.905V511.478h84.546
		c4.647,33.069,8.217,68.46,10.629,105.428H1589.968z M1681.692,511.478h91.287c9.535,32.671,17.026,68.055,22.122,105.428h-102.835
		C1689.865,579.966,1686.314,544.577,1681.692,511.478z M1680.68,504.366c-4.39-30.111-9.677-58.247-15.812-83.8
		c-1.803-7.508-3.662-14.715-5.574-21.627h66.671c17.582,30.034,32.766,65.63,44.89,105.428H1680.68z M1657.279,391.827
		c-7.963-27.383-16.81-49.72-26.406-66.626c-6.722-11.842-13.727-20.817-20.964-26.9c42.01,9.146,80.455,42.713,111.781,93.526
		H1657.279z M1542.324,325.201c-9.596,16.906-18.443,39.244-26.405,66.626h-64.412c31.326-50.813,69.771-84.38,111.781-93.526
		C1556.051,304.384,1549.046,313.358,1542.324,325.201z M1513.903,398.938c-1.912,6.912-3.771,14.12-5.573,21.627
		c-6.135,25.553-11.422,53.689-15.812,83.8h-90.176c12.124-39.797,27.308-75.394,44.89-105.428H1513.903z M1491.506,511.478
		c-4.622,33.099-8.174,68.488-10.575,105.428h-102.835c5.096-37.373,12.588-72.757,22.122-105.428H1491.506z M1480.482,624.017
		c-2.068,34.078-3.161,69.416-3.229,105.428h-106.886c0.144-36.359,2.49-71.676,6.789-105.428H1480.482z M1477.254,736.556
		c0.068,36.012,1.161,71.349,3.229,105.428h-103.326c-4.298-33.751-6.645-69.069-6.789-105.428H1477.254z M1480.932,849.095
		c2.401,36.939,5.952,72.328,10.575,105.428h-91.287c-9.535-32.671-17.026-68.055-22.122-105.428H1480.932z M1492.518,961.634
		c4.39,30.112,9.677,58.247,15.812,83.801c1.802,7.508,3.661,14.715,5.573,21.627h-66.671
		c-17.582-30.034-32.766-65.63-44.89-105.428H1492.518z M1515.919,1074.173c7.963,27.383,16.809,49.72,26.405,66.627
		c6.722,11.842,13.726,20.817,20.963,26.899c-42.01-9.146-80.455-42.714-111.78-93.526H1515.919z M1630.873,1140.8
		c9.596-16.907,18.443-39.244,26.406-66.627h64.412c-31.326,50.813-69.771,84.38-111.781,93.526
		C1617.147,1161.616,1624.151,1152.642,1630.873,1140.8z M1659.294,1067.062c1.912-6.912,3.771-14.119,5.574-21.627
		c6.135-25.553,11.422-53.689,15.812-83.801h90.175c-12.124,39.797-27.308,75.394-44.89,105.428H1659.294z M1681.692,954.522
		c4.623-33.1,8.174-68.488,10.575-105.428h102.835c-5.096,37.373-12.588,72.757-22.122,105.428H1681.692z M1692.716,841.983
		c2.068-34.078,3.161-69.416,3.229-105.428h106.886c-0.144,36.359-2.49,71.676-6.789,105.428H1692.716z M1695.945,729.444
		c-0.068-36.012-1.161-71.349-3.229-105.428h103.326c4.298,33.751,6.645,69.069,6.789,105.428H1695.945z M1802.085,616.905
		c-4.974-36.93-12.327-72.318-21.901-105.428h91.764c14.752,33.052,26.088,68.446,33.746,105.428H1802.085z M1778.091,504.366
		c-9.167-30.374-20.226-58.747-33.068-84.507c-3.618-7.258-7.344-14.229-11.164-20.921h66.156
		c6.954,7.781,13.704,15.941,20.212,24.521c18.739,24.705,34.939,51.865,48.475,80.907H1778.091z M1729.698,391.827
		c-26.366-43.957-57.121-74.705-90.222-90.549c25.92,5.497,51.194,15.07,75.564,28.66c28.348,15.808,54.612,36.563,78.452,61.889
		H1729.698z M1443.499,391.827h-63.794c23.84-25.326,50.104-46.081,78.452-61.889c24.37-13.59,49.645-23.163,75.565-28.66
		C1500.621,317.122,1469.866,347.87,1443.499,391.827z M1439.338,398.938c-3.821,6.692-7.546,13.663-11.164,20.921
		c-12.842,25.76-23.901,54.133-33.068,84.507h-90.61c13.535-29.042,29.736-56.201,48.475-80.907
		c6.508-8.58,13.257-16.74,20.212-24.521H1439.338z M1393.014,511.478c-9.574,33.11-16.928,68.498-21.901,105.428h-103.609
		c7.658-36.982,18.995-72.376,33.746-105.428H1393.014z M1370.179,624.017c-4.286,34.083-6.549,69.42-6.69,105.428h-107.691
		c0.216-36.03,3.702-71.37,10.287-105.428H1370.179z M1255.798,736.556h107.691c0.141,36.008,2.404,71.345,6.69,105.428h-104.094
		C1259.501,807.925,1256.014,772.586,1255.798,736.556z M1371.112,849.095c4.974,36.93,12.327,72.318,21.901,105.428h-91.764
		c-14.752-33.052-26.088-68.446-33.746-105.428H1371.112z M1395.106,961.634c9.167,30.374,20.226,58.747,33.068,84.507
		c3.618,7.258,7.344,14.229,11.164,20.921h-66.156c-6.954-7.781-13.704-15.941-20.212-24.521
		c-18.739-24.706-34.939-51.865-48.475-80.907H1395.106z M1443.499,1074.173c26.366,43.956,57.121,74.704,90.221,90.549
		c-25.92-5.497-51.194-15.07-75.563-28.659c-28.348-15.808-54.612-36.564-78.452-61.89H1443.499z M1729.698,1074.173h63.795
		c-23.84,25.326-50.104,46.082-78.453,61.89c-24.369,13.589-49.643,23.161-75.562,28.659
		C1672.578,1148.877,1703.332,1118.129,1729.698,1074.173z M1733.859,1067.062c3.821-6.692,7.546-13.663,11.164-20.921
		c12.842-25.76,23.901-54.133,33.068-84.507h90.611c-13.535,29.042-29.736,56.202-48.475,80.907
		c-6.508,8.58-13.258,16.739-20.212,24.521H1733.859z M1780.184,954.522c9.574-33.11,16.928-68.498,21.901-105.428h103.609
		c-7.658,36.982-18.994,72.376-33.746,105.428H1780.184z M1803.019,841.983c4.286-34.083,6.549-69.42,6.69-105.428h107.69
		c-0.216,36.03-3.702,71.37-10.287,105.428H1803.019z M1924.229,736.556h99.654c-0.283,35.931-4.853,71.193-13.645,105.428h-96.163
		C1920.581,807.9,1924.015,772.563,1924.229,736.556z M2008.342,616.905h-95.687c-7.549-36.925-18.709-72.313-33.242-105.428h84.315
		c9.675,16.457,18.309,33.565,25.812,51.305C1997.025,580.479,2003.291,598.54,2008.342,616.905z M1959.465,504.366h-83.225
		c-14.004-30.573-30.918-59.124-50.571-85.034c-5.361-7.068-10.886-13.855-16.549-20.394h59.677
		c9.302,7.878,18.326,16.144,27.022,24.84C1920.319,448.277,1941.587,475.247,1959.465,504.366z M1756.816,330.059
		c37.351,15.798,71.953,36.513,103.364,61.769h-57.371c-25.456-27.974-53.746-50.736-84.443-67.854
		c-13.424-7.486-27.121-13.777-41.045-18.878C1704.472,310.823,1731.029,319.152,1756.816,330.059z M1416.381,330.059
		c25.788-10.907,52.345-19.235,79.496-24.963c-13.924,5.1-27.621,11.392-41.046,18.878c-30.697,17.118-58.987,39.88-84.443,67.854
		h-57.372C1344.428,366.571,1379.03,345.856,1416.381,330.059z M1277.377,423.778c8.696-8.696,17.72-16.962,27.022-24.84h59.678
		c-5.662,6.539-11.187,13.326-16.548,20.394c-19.653,25.91-36.568,54.461-50.571,85.034h-83.225
		C1231.61,475.247,1252.878,448.277,1277.377,423.778z M1183.657,562.782c7.503-17.74,16.137-34.848,25.812-51.305h84.315
		c-14.532,33.115-25.693,68.503-33.242,105.428h-95.687C1169.906,598.54,1176.172,580.479,1183.657,562.782z M1164.855,849.095
		h95.687c7.549,36.925,18.71,72.313,33.242,105.428h-84.315c-9.675-16.457-18.309-33.565-25.812-51.305
		C1176.172,885.521,1169.906,867.459,1164.855,849.095z M1213.733,961.634h83.225c14.004,30.573,30.919,59.124,50.571,85.034
		c5.361,7.068,10.886,13.855,16.548,20.394H1304.4c-9.302-7.878-18.327-16.144-27.023-24.84
		C1252.878,1017.723,1231.61,990.754,1213.733,961.634z M1416.381,1135.941c-37.351-15.798-71.953-36.512-103.364-61.769h57.371
		c25.456,27.974,53.746,50.736,84.443,67.854c13.425,7.486,27.121,13.778,41.045,18.878
		C1468.726,1155.176,1442.168,1146.848,1416.381,1135.941z M1756.816,1135.941c-25.787,10.907-52.344,19.235-79.494,24.963
		c13.924-5.1,27.619-11.392,41.043-18.878c30.697-17.117,58.987-39.879,84.444-67.854h57.371
		C1828.769,1099.429,1794.167,1120.144,1756.816,1135.941z M1895.82,1042.222c-8.696,8.696-17.72,16.962-27.022,24.84h-59.677
		c5.662-6.539,11.187-13.326,16.548-20.394c19.652-25.91,36.567-54.461,50.571-85.034h83.225
		C1941.587,990.754,1920.319,1017.723,1895.82,1042.222z M1989.54,903.218c-7.503,17.74-16.137,34.848-25.812,51.305h-84.315
		c14.532-33.115,25.693-68.503,33.242-105.428h95.687C2003.291,867.459,1997.025,885.521,1989.54,903.218z"/>
</g>
</svg>
