<?xml version="1.0" encoding="UTF-8"?>
<svg id="Camada_1" data-name="Camada 1" xmlns="http://www.w3.org/2000/svg" viewBox="0 0 500 500">
  <defs>
    <style>
      .cls-1 {
        fill: none;
      }

      .cls-2 {
        fill: #f18535;
      }
    </style>
  </defs>
  <path class="cls-1" d="M378.18,220.15c-10.31,0-17.3,7.34-17.3,17.3s6.99,17.3,17.3,17.3,17.3-7.34,17.3-17.3-6.99-17.3-17.3-17.3Z"/>
  <path class="cls-1" d="M248.48,188.52c-17.07,0-31.53,14.47-31.53,31.64s14.46,31.59,31.53,31.59,31.52-14.49,31.52-31.62-14.35-31.62-31.52-31.62Z"/>
  <path class="cls-1" d="M101.23,188.52c-17.07,0-31.53,14.47-31.53,31.64s14.46,31.59,31.53,31.59,31.52-14.49,31.52-31.62-14.35-31.62-31.52-31.62Z"/>
  <path class="cls-1" d="M426.44,220.39c-10.25,0-17.2,7.3-17.2,17.2s6.95,17.2,17.2,17.2,17.2-7.3,17.2-17.2-6.86-17.2-17.2-17.2Z"/>
  <path class="cls-2" d="M191.1,260.17h8.45c2.34-26.71,4.67-53.36,7.01-80.07h-8.45c-2.34,26.71-4.67,53.36-7.01,80.07Z"/>
  <path class="cls-2" d="M248.46,180.1c-21.94,0-39.93,18.05-39.93,40.16s17.98,39.91,39.88,39.91,40.04-17.95,40.04-39.91-17.99-40.16-39.98-40.16Zm0,71.65c-17.07,0-31.53-14.46-31.53-31.59s14.46-31.64,31.53-31.64,31.52,14.44,31.52,31.62-14.35,31.62-31.52,31.62Z"/>
  <path class="cls-2" d="M101.21,180.1c-21.94,0-39.93,18.05-39.93,40.16s17.98,39.91,39.88,39.91,40.04-17.95,40.04-39.91-17.99-40.16-39.98-40.16Zm0,71.65c-17.07,0-31.53-14.46-31.53-31.59s14.46-31.64,31.53-31.64,31.52,14.44,31.52,31.62-14.35,31.62-31.52,31.62Z"/>
  <path class="cls-2" d="M54.05,180.1c7.51,20.18,2.07,39.64-15.16,71.65l-21.92-71.65h-8.81l24.5,80.07h4.88c18.51-34.87,26.99-57.88,18.42-80.07h-1.9Z"/>
  <polygon class="cls-2" points="334.19 214.29 290.41 180.1 290.41 188.42 290.41 188.42 290.41 260.17 298.83 260.17 298.83 197.36 334.19 224.97 334.19 260.17 342.61 260.17 342.61 180.1 334.19 180.1 334.19 214.29"/>
  <path class="cls-2" d="M182.32,180.1h-2.11c.5,12.32-5.36,26.13-13.2,38.86l-20.67-38.86h-9.54s21.05,39.58,24.93,46.87c-10.91,15.61-23.56,28.5-28.65,33.2h4.12c11.21-11.23,19.64-21.39,25.99-30.45,7.54,14.17,14.23,26.76,16.19,30.45h9.54l-20.46-38.46c12.77-20.84,13.91-34.83,13.84-41.61Z"/>
  <path class="cls-2" d="M472.65,234.74c-5.33-1.49-10.48-2.36-10.48-7.43,0-4.63,4.19-7.34,10.57-7.34,6.99,0,11.1,3.41,11.1,7.69h5.85c0-8.39-6.64-12.93-16.6-12.93s-16.86,4.63-16.86,13.28,7.08,10.13,14.42,12.06c4.98,1.31,10.57,2.36,10.57,7.43,0,4.63-4.72,7.34-11.45,7.34-7.6,0-12.23-3.41-12.32-7.95h-6.03c0,8.13,7.51,13.28,18.26,13.28,9.87,0,17.47-4.37,17.47-13.19,0-8.3-7.69-10.4-14.5-12.23Z"/>
  <rect class="cls-2" x="344.57" y="251.77" width="8.4" height="8.4"/>
  <path class="cls-2" d="M378.18,214.74c-13.63,0-23.24,9.52-23.24,22.98s10.22,22.46,22.37,22.46c8.39,0,15.55-4.11,18.61-11.8v10.66h5.42v-21.32c0-13.63-9.52-22.98-23.15-22.98Zm0,40.01c-10.31,0-17.3-7.34-17.3-17.3s6.99-17.3,17.3-17.3,17.3,7.34,17.3,17.3-6.99,17.3-17.3,17.3Z"/>
  <path class="cls-2" d="M443.64,225.34c-3.21-6.51-9.9-10.34-18.07-10.34-12.6,0-22.24,9.21-22.24,22.41s9.55,22.76,23.19,22.76,22.93-9.03,22.93-22.84v-39.96h-5.82v27.97Zm-17.2,29.45c-10.25,0-17.2-7.3-17.2-17.2s6.95-17.2,17.2-17.2,17.2,7.3,17.2,17.2-6.86,17.2-17.2,17.2Z"/>
</svg>
